<svg xmlns="http://www.w3.org/2000/svg" width="32" height="32" fill="none" viewBox="0 0 32 32"><path fill="#2b4be2" fill-rule="evenodd" d="M4.36 18.43q0-.219-.075-.424l1.327-1.28h3.227v1.081l-2.52.8a.52.52 0 0 0-.297.24l-1.739 3.046a1.28 1.28 0 0 0-.89.264 1.23 1.23 0 0 0-.364 1.501c.12.254.322.461.576.588a1.28 1.28 0 0 0 1.537-.303 1.236 1.236 0 0 0 .058-1.544l1.638-2.871 2.396-.76a1.5 1.5 0 0 0 1.114.486h3.363v-4.382a2.17 2.17 0 0 1 .711-1.61 1.785 1.785 0 0 1 .595-2.537 1.85 1.85 0 0 1 1.877.001c.284.167.516.407.673.693a1.78 1.78 0 0 1-.083 1.846 2.2 2.2 0 0 1 .708 1.607v4.002q.067-.003.135-.004c.45 0 .889.134 1.26.384h1.973a1.53 1.53 0 0 0 1.135-.51l2.467.784L26.8 22.4a1.23 1.23 0 0 0 .058 1.542 1.284 1.284 0 0 0 1.537.304c.254-.127.457-.334.576-.589a1.23 1.23 0 0 0-.365-1.501 1.28 1.28 0 0 0-.89-.263l-1.738-3.047a.52.52 0 0 0-.297-.24l-2.612-.829v-1.051h3.319l1.327 1.28c-.099.267-.101.56-.007.829s.278.498.523.65a1.28 1.28 0 0 0 1.577-.183 1.23 1.23 0 0 0 .153-1.556 1.26 1.26 0 0 0-.67-.502 1.3 1.3 0 0 0-.842.024l-1.454-1.403a.52.52 0 0 0-.395-.176h-3.532v-1.894h4.686c.12.259.326.47.585.597a1.284 1.284 0 0 0 1.552-.333 1.235 1.235 0 0 0 0-1.564 1.28 1.28 0 0 0-1.552-.333 1.26 1.26 0 0 0-.585.597h-4.686v-1.894H26.6a.53.53 0 0 0 .396-.176l1.454-1.402c.27.102.566.11.841.023s.512-.263.67-.501a1.23 1.23 0 0 0-.153-1.556 1.28 1.28 0 0 0-1.577-.183 1.25 1.25 0 0 0-.522.65c-.094.268-.092.56.006.828l-1.327 1.28h-3.32V8.9l2.633-.959a.52.52 0 0 0 .278-.232l1.738-3.048q.052.004.105.004c.284 0 .56-.094.784-.267s.38-.416.447-.689a1.23 1.23 0 0 0-.082-.813 1.26 1.26 0 0 0-.576-.588 1.284 1.284 0 0 0-1.537.303 1.236 1.236 0 0 0-.058 1.543l-1.643 2.882-2.384.868A1.53 1.53 0 0 0 21.56 7.3h-.749V4.783a4.75 4.75 0 0 0-1.422-3.382A4.9 4.9 0 0 0 15.954 0a4.9 4.9 0 0 0-3.435 1.4 4.75 4.75 0 0 0-1.423 3.383V7.3h-.748a1.53 1.53 0 0 0-1.193.578l-2.312-.842L5.2 4.154a1.23 1.23 0 0 0-.058-1.543 1.284 1.284 0 0 0-1.537-.304 1.25 1.25 0 0 0-.576.589 1.23 1.23 0 0 0 .365 1.501 1.28 1.28 0 0 0 .89.264L6.02 7.71a.52.52 0 0 0 .278.232l2.54.926v.962H5.612L4.285 8.55c.098-.268.1-.56.006-.83a1.25 1.25 0 0 0-.523-.649 1.28 1.28 0 0 0-1.577.183 1.23 1.23 0 0 0-.153 1.556 1.27 1.27 0 0 0 1.512.478l1.454 1.402a.53.53 0 0 0 .395.176h3.44v1.894H4.246a1.25 1.25 0 0 0-.585-.596 1.284 1.284 0 0 0-1.552.332 1.234 1.234 0 0 0 0 1.564c.181.222.434.376.716.436.283.06.577.024.836-.103.258-.127.465-.338.585-.596h4.593v1.893H5.4a.53.53 0 0 0-.395.176L3.55 17.268a1.28 1.28 0 0 0-1.45.39 1.235 1.235 0 0 0 .579 1.95c.255.087.532.092.79.013s.484-.237.644-.451.247-.473.247-.74m18.862 11.592h-8.729c-.446-2.192-2.043-3.523-3.911-7.637-.733-1.613.954-2.555 2.057-1.17l2.124 2.67v-9.013a1.15 1.15 0 0 1 .342-.838 1.2 1.2 0 0 1 .846-.349 1.2 1.2 0 0 1 .846.349 1.17 1.17 0 0 1 .341.838v6.204c.005-.307.132-.6.354-.815a1.197 1.197 0 0 1 1.667 0c.223.215.35.508.354.815v1.073a1.16 1.16 0 0 1 .342-.838 1.2 1.2 0 0 1 .846-.349 1.2 1.2 0 0 1 .846.349 1.17 1.17 0 0 1 .341.838v1.04a1.15 1.15 0 0 1 .342-.838 1.2 1.2 0 0 1 .846-.349 1.2 1.2 0 0 1 .846.349 1.17 1.17 0 0 1 .341.838v1.587c0 1.243-.146 3.58-1.042 5.246zm-8.647 1.036V32h8.327v-.942zM13.405 7.3V4.783a2.5 2.5 0 0 1 .751-1.766 2.57 2.57 0 0 1 1.798-.731c.674 0 1.32.263 1.797.73a2.5 2.5 0 0 1 .752 1.767V7.3z" clip-rule="evenodd"/></svg>