<svg xmlns="http://www.w3.org/2000/svg" width="34" height="34" fill="none" viewBox="0 0 34 34"><path fill="#2caaab" d="M29.422 1.688H4.315A4.32 4.32 0 0 0 0 6.003V27.97a4.32 4.32 0 0 0 4.315 4.316h25.107a4.32 4.32 0 0 0 4.316-4.316V6.003a4.32 4.32 0 0 0-4.316-4.315M7.062 24.833a1.177 1.177 0 0 1-2.354 0v-3.138a1.177 1.177 0 0 1 2.353 0zm5.492 0a1.177 1.177 0 0 1-2.354 0v-6.277a1.177 1.177 0 1 1 2.354 0zm5.492 0a1.177 1.177 0 0 1-2.354 0v-4.707a1.177 1.177 0 0 1 2.354 0zm.283-9.204-4.333-3.248a.395.395 0 0 0-.48.007L6.62 17.907a1.177 1.177 0 0 1-1.47-1.84l6.897-5.516a2.74 2.74 0 0 1 3.362-.052l4.333 3.249a.39.39 0 0 0 .48-.008l6.897-5.518a1.177 1.177 0 0 1 1.47 1.839l-6.897 5.516a2.745 2.745 0 0 1-3.362.052m5.209 9.204a1.177 1.177 0 0 1-2.354 0v-6.277a1.177 1.177 0 0 1 2.354 0zm5.492 0a1.177 1.177 0 0 1-2.354 0v-9.415a1.177 1.177 0 1 1 2.354 0z"/></svg>