<svg xmlns="http://www.w3.org/2000/svg" width="32" height="32" fill="none" viewBox="0 0 32 32"><path fill="#2b4be2" d="M16.043 18.666a1.07 1.07 0 0 1-1.067-1.066c0-.587.48-1.067 1.067-1.067h3.2a9.5 9.5 0 0 1 5.29-1.6c1.12 0 2.198.203 3.2.565V9.6H0v17.066c0 .587.48 1.067 1.067 1.067h14.432a9.7 9.7 0 0 1-.566-3.2c0-2.208.758-4.245 2.016-5.867zm5.354-7.157H22.4c.587 0 1.067.48 1.067 1.067a1.07 1.07 0 0 1-1.067 1.066h-1.003a1.07 1.07 0 0 1-1.066-1.066c0-.587.48-1.067 1.066-1.067m-5.354 0h1.002c.587 0 1.067.48 1.067 1.067a1.07 1.07 0 0 1-1.067 1.066h-1.002a1.07 1.07 0 0 1-1.067-1.066c0-.587.48-1.067 1.067-1.067m-9.707 12.17H5.333a1.07 1.07 0 0 1-1.066-1.066c0-.587.48-1.067 1.066-1.067h1.003c.587 0 1.067.48 1.067 1.067a1.07 1.07 0 0 1-1.067 1.067m0-5.023H5.333a1.07 1.07 0 0 1-1.066-1.067c0-.587.48-1.067 1.066-1.067h1.003c.587 0 1.067.48 1.067 1.067a1.07 1.07 0 0 1-1.067 1.067m0-5.024H5.333a1.07 1.07 0 0 1-1.066-1.067c0-.587.48-1.067 1.066-1.067h1.003c.587 0 1.067.48 1.067 1.067a1.07 1.07 0 0 1-1.067 1.067m5.355 10.037h-1.003a1.07 1.07 0 0 1-1.067-1.067c0-.586.48-1.066 1.067-1.066h1.003c.586 0 1.066.48 1.066 1.066a1.07 1.07 0 0 1-1.066 1.067m0-5.024h-1.003a1.07 1.07 0 0 1-1.067-1.067c0-.586.48-1.066 1.067-1.066h1.003c.586 0 1.066.48 1.066 1.066a1.07 1.07 0 0 1-1.066 1.067m0-5.024h-1.003a1.07 1.07 0 0 1-1.067-1.067c0-.586.48-1.066 1.067-1.066h1.003c.586 0 1.066.48 1.066 1.066a1.07 1.07 0 0 1-1.066 1.067m16.042-9.355A1.07 1.07 0 0 0 26.667 3.2h-.534V1.067A1.07 1.07 0 0 0 25.067 0 1.07 1.07 0 0 0 24 1.067V3.2h-3.2V1.067A1.07 1.07 0 0 0 19.733 0a1.07 1.07 0 0 0-1.066 1.067V3.2h-3.2V1.067A1.07 1.07 0 0 0 14.4 0a1.07 1.07 0 0 0-1.067 1.067V3.2h-3.2V1.067A1.07 1.07 0 0 0 9.067 0 1.07 1.07 0 0 0 8 1.067V3.2H4.8V1.067A1.07 1.07 0 0 0 3.733 0a1.07 1.07 0 0 0-1.066 1.067V3.2h-1.6A1.07 1.07 0 0 0 0 4.267v3.2h27.733z"/><path fill="#2b4be2" d="M24.531 17.068c-4.117 0-7.466 3.35-7.466 7.467s3.349 7.467 7.466 7.467c4.118 0 7.467-3.35 7.467-7.467s-3.35-7.467-7.467-7.467m2.89 10.358c-.212.213-.48.309-.756.309-.278 0-.544-.107-.758-.31l-2.133-2.133a1.06 1.06 0 0 1-.31-.757v-3.2c0-.587.48-1.067 1.067-1.067s1.067.48 1.067 1.067v2.763l1.824 1.824a1.06 1.06 0 0 1 0 1.504"/></svg>