<svg xmlns="http://www.w3.org/2000/svg" width="39" height="39" fill="none" viewBox="0 0 39 39"><path fill="#fff" d="m37.698 25.017-4.312-2.376-13.696 7.712c-.18.09-.382.134-.56.134-.18 0-.382-.045-.561-.134L4.872 22.64.56 25.017c-.336.202-.56.583-.56.987 0 .403.224.784.56.986l18.01 10.088c.18.09.38.134.56.134s.381-.045.56-.134L37.699 26.99c.336-.202.56-.583.56-.986 0-.404-.224-.785-.56-.987M.56 13.54l18.01 10.088c.18.09.38.134.56.134s.381-.045.56-.134L37.699 13.54c.336-.202.56-.583.56-.986 0-.404-.224-.785-.56-.987L19.69 1.48a1.24 1.24 0 0 0-1.121 0L.56 11.567c-.336.202-.56.583-.56.986 0 .404.224.785.56.987m22.268-2.444a1.083 1.083 0 0 1 0-1.569 1.084 1.084 0 0 1 1.57 0l2.24 2.242a1.084 1.084 0 0 1 0 1.569l-2.24 2.242c-.404.448-1.166.448-1.57 0a1.083 1.083 0 0 1 0-1.57l1.435-1.457zm-5.358 3.43 1.121-4.483a1.116 1.116 0 0 1 1.368-.807c.605.134.963.74.829 1.345l-1.12 4.483c-.192.732-1.019.982-1.368.807-.605-.134-.964-.74-.83-1.345m-5.85-2.757 2.241-2.242a1.084 1.084 0 0 1 1.57 0 1.084 1.084 0 0 1 0 1.57l-1.435 1.457 1.434 1.457a1.084 1.084 0 0 1 0 1.569c-.403.448-1.165.448-1.569 0l-2.242-2.242a1.083 1.083 0 0 1 0-1.57"/></svg>