<svg xmlns="http://www.w3.org/2000/svg" width="39" height="33" fill="none" viewBox="0 0 39 33"><path fill="#fff" d="M32.591.328a1.118 1.118 0 1 0-1.582 1.581 16.74 16.74 0 0 1 4.936 11.917 1.119 1.119 0 0 0 2.237 0c0-5.1-1.986-9.893-5.591-13.498m-25.418 0a1.12 1.12 0 0 0-1.582 0A18.97 18.97 0 0 0 0 13.826a1.119 1.119 0 0 0 2.237 0c0-4.502 1.753-8.734 4.936-11.917a1.12 1.12 0 0 0 0-1.581m20.442 3.385a1.12 1.12 0 0 0 0 1.582 11.98 11.98 0 0 1 3.532 8.528 1.118 1.118 0 1 0 2.237 0 14.2 14.2 0 0 0-4.188-10.11 1.12 1.12 0 0 0-1.582 0m-17.047.001a1.12 1.12 0 0 0-1.582 0 14.2 14.2 0 0 0-4.187 10.11 1.119 1.119 0 0 0 2.237 0c0-3.221 1.254-6.25 3.532-8.528a1.12 1.12 0 0 0 0-1.582M28.59 21.95v-5.725a9.42 9.42 0 0 0-1.922-5.732 9.6 9.6 0 0 0-4.097-3.11 3.52 3.52 0 0 0-3.485-3.06 3.52 3.52 0 0 0-3.485 3.06 9.6 9.6 0 0 0-4.097 3.11 9.4 9.4 0 0 0-1.923 5.732v5.726l-2.278 4.556a1.12 1.12 0 0 0 1 1.618h21.565a1.118 1.118 0 0 0 1-1.618zm-9.504 10.965a5.9 5.9 0 0 0 4.862-2.555h-9.724a5.9 5.9 0 0 0 4.862 2.555"/></svg>