<svg xmlns="http://www.w3.org/2000/svg" width="34" height="34" fill="none" viewBox="0 0 34 34"><mask id="a" width="34" height="34" x="0" y="0" maskUnits="userSpaceOnUse" style="mask-type:luminance"><path fill="#fff" d="M33.738 0H0v33.738h33.738z"/></mask><g fill="#2caaab" mask="url(#a)"><path d="M31.724 21.936c-1.736-1.737-4.144-2.473-7.237-1.644L13.46 9.252l.145-.55a6.95 6.95 0 0 0-1.79-6.684 6.81 6.81 0 0 0-6.67-1.77.988.988 0 0 0-.436 1.653l2.655 2.655c.777.778.769 2.025.002 2.794-.76.762-2.04.761-2.797.001L1.913 4.695a.988.988 0 0 0-1.652.44 6.84 6.84 0 0 0 1.77 6.667c1.734 1.736 4.14 2.474 7.234 1.644l11.028 11.039c-.823 3.091-.113 5.476 1.646 7.235a6.81 6.81 0 0 0 6.668 1.768.988.988 0 0 0 .437-1.652l-2.655-2.655a1.975 1.975 0 0 1-.002-2.793c.77-.766 2.046-.754 2.797-.001l2.656 2.655a.988.988 0 0 0 1.652-.439 6.84 6.84 0 0 0-1.768-6.667"/><path d="m10.579 17.565-9.423 9.423a3.957 3.957 0 0 0 0 5.591 3.96 3.96 0 0 0 5.592 0l9.422-9.423zm-4.76 11.947a.988.988 0 1 1-1.397-1.398l5.995-5.996a.988.988 0 1 1 1.397 1.398zM33.451 1.994 31.747.29A.99.99 0 0 0 30.54.14l-5.242 3.145a.988.988 0 0 0-.19 1.547l.417.417-6.654 6.627 2.796 2.796 6.654-6.627.588.588a.988.988 0 0 0 1.546-.19L33.6 3.2a.99.99 0 0 0-.149-1.207"/></g></svg>