<svg xmlns="http://www.w3.org/2000/svg" width="824" height="830" fill="none" viewBox="0 0 824 830"><path fill="#0e0e0e" fill-opacity=".1" d="M1.304 89.962H92.57V0h1.303v89.962h91.266V0h1.304v89.962h91.266V0h1.304v89.962h91.265V0h1.304v89.962h91.266V0h1.304v89.962h91.266V0h1.303v89.962h91.266V0h1.304v89.962h91.266V0h1.304v89.962h80.835V0H824v829.215H0V0h1.304zM741.86 737.949v89.962h80.835v-89.962zM1.304 827.911H92.57v-89.962H1.304zm92.57 0h91.265v-89.962H93.873zm92.569 0h91.266v-89.962h-91.266zm92.57 0h91.265v-89.962h-91.265zm92.569 0h91.266v-89.962h-91.266zm92.57 0h91.266v-89.962h-91.266zm92.569 0h91.266v-89.962h-91.266zm92.57 0h91.266v-89.962h-91.266zm92.57-181.227v89.962h80.835v-89.962zM1.304 736.646H92.57v-89.962H1.304zm92.57 0h91.265v-89.962H93.873zm92.569 0h91.266v-89.962h-91.266zm92.57 0h91.265v-89.962h-91.265zm92.569 0h91.266v-89.962h-91.266zm92.57 0h91.266v-89.962h-91.266zm92.569 0h91.266v-89.962h-91.266zm92.57 0h91.266v-89.962h-91.266zm92.57-182.532v91.266h80.835v-91.266zM1.304 645.38H92.57v-91.266H1.304zm92.57 0h91.265v-91.266H93.873zm92.569 0h91.266v-91.266h-91.266zm92.57 0h91.265v-91.266h-91.265zm92.569 0h91.266v-91.266h-91.266zm92.57 0h91.266v-91.266h-91.266zm92.569 0h91.266v-91.266h-91.266zm92.57 0h91.266v-91.266h-91.266zm92.57-183.836v91.266h80.835v-91.266zM1.304 552.81H92.57v-91.266H1.304zm92.57 0h91.265v-91.266H93.873zm92.569 0h91.266v-91.266h-91.266zm92.57 0h91.265v-91.266h-91.265zm92.569 0h91.266v-91.266h-91.266zm92.57 0h91.266v-91.266h-91.266zm92.569 0h91.266v-91.266h-91.266zm92.57 0h91.266v-91.266h-91.266zm92.57-183.835v91.266h80.835v-91.266zM1.304 460.241H92.57v-91.266H1.304zm92.57 0h91.265v-91.266H93.873zm92.569 0h91.266v-91.266h-91.266zm92.57 0h91.265v-91.266h-91.265zm92.569 0h91.266v-91.266h-91.266zm92.57 0h91.266v-91.266h-91.266zm92.569 0h91.266v-91.266h-91.266zm92.57 0h91.266v-91.266h-91.266zm92.57-183.836v91.266h80.835v-91.266zM1.304 367.671H92.57v-91.266H1.304zm92.57 0h91.265v-91.266H93.873zm92.569 0h91.266v-91.266h-91.266zm92.57 0h91.265v-91.266h-91.265zm92.569 0h91.266v-91.266h-91.266zm92.57 0h91.266v-91.266h-91.266zm92.569 0h91.266v-91.266h-91.266zm92.57 0h91.266v-91.266h-91.266zm92.57-183.836v91.266h80.835v-91.266zM1.304 275.101H92.57v-91.266H1.304zm92.57 0h91.265v-91.266H93.873zm92.569 0h91.266v-91.266h-91.266zm92.57 0h91.265v-91.266h-91.265zm92.569 0h91.266v-91.266h-91.266zm92.57 0h91.266v-91.266h-91.266zm92.569 0h91.266v-91.266h-91.266zm92.57 0h91.266v-91.266h-91.266zm92.57-183.835v91.266h80.835V91.266zM1.304 182.532H92.57V91.266H1.304zm92.57 0h91.265V91.266H93.873zm92.569 0h91.266V91.266h-91.266zm92.57 0h91.265V91.266h-91.265zm92.569 0h91.266V91.266h-91.266zm92.57 0h91.266V91.266h-91.266zm92.569 0h91.266V91.266h-91.266zm92.57 0h91.266V91.266h-91.266z" opacity=".5"/></svg>