<svg width="14" height="13" viewBox="0 0 14 13" fill="none" xmlns="http://www.w3.org/2000/svg">
<path d="M6.26494 12.6219C6.31494 12.6969 6.38994 12.7344 6.48994 12.7344C6.58994 12.7344 6.67327 12.6969 6.73994 12.6219L12.7149 6.65938C12.7899 6.58438 12.8274 6.50104 12.8274 6.40938C12.8274 6.31771 12.7899 6.23854 12.7149 6.17188L6.73994 0.196877C6.67327 0.121877 6.58994 0.0843763 6.48994 0.0843763C6.38994 0.0843763 6.31494 0.121877 6.26494 0.196877L5.68994 0.734377C5.61494 0.809377 5.57744 0.894794 5.57744 0.990626C5.57744 1.08646 5.61494 1.16354 5.68994 1.22188L10.1149 5.65938H0.339941C0.256608 5.65938 0.179525 5.69479 0.108691 5.76563C0.0378581 5.83646 0.00244141 5.91354 0.00244141 5.99688V6.79688C0.00244141 6.89688 0.0378581 6.97813 0.108691 7.04063C0.179525 7.10313 0.256608 7.13438 0.339941 7.13438H10.1149L5.68994 11.5969C5.61494 11.6552 5.57744 11.7323 5.57744 11.8281C5.57744 11.924 5.61494 12.0094 5.68994 12.0844L6.26494 12.6219Z" fill="white"/>
</svg>
