<svg xmlns="http://www.w3.org/2000/svg" width="40" height="40" fill="none" viewBox="0 0 40 40"><g clip-path="url(#a)"><path fill="#2caaab" d="M14.016 33.752q1.082.95 2.232 1.965l.015.014 2.549 2.2a1.814 1.814 0 0 0 2.378 0l2.547-2.2.016-.014c5.044-4.461 8.827-7.877 11.563-11.207C38.512 20.62 40 17.101 40 13.44c0-6.625-5.19-11.815-11.814-11.815-2.978 0-5.92 1.121-8.185 3.065-2.266-1.944-5.208-3.065-8.186-3.065C5.19 1.625 0 6.815 0 13.44c0 8.008 5.576 12.903 14.016 20.312m-1.29-17.39h4.85v-4.85h4.849v4.85h4.85v4.85h-4.85v4.85h-4.85v-4.85h-4.85z"/></g><defs><clipPath id="a"><path fill="#fff" d="M0 0h40v40H0z"/></clipPath></defs></svg>