<svg xmlns="http://www.w3.org/2000/svg" width="40" height="40" fill="none" viewBox="0 0 40 40"><path fill="#2b4be2" d="M37.75 32.617a2.833 2.833 0 0 1-3.467 3.466l-3.25-.866A13.15 13.15 0 0 1 25 36.667q-1.006 0-2-.15a13.2 13.2 0 0 1-6.883-3.334c.466 0 .916 0 1.383-.1a16.667 16.667 0 0 0 13.334-21.816 13.33 13.33 0 0 1 7.416 10 13.23 13.23 0 0 1-1.3 8.033zM24.417 7.233a13.333 13.333 0 0 0-22.6 7.434 13.23 13.23 0 0 0 1.3 8.033l-.867 3.333a2.77 2.77 0 0 0 .734 2.734 2.77 2.77 0 0 0 2.733.733l3.25-.867A13.15 13.15 0 0 0 15 30a13.333 13.333 0 0 0 9.433-22.767z"/></svg>