<svg xmlns="http://www.w3.org/2000/svg" width="40" height="40" fill="none" viewBox="0 0 40 40"><path fill="#2caaab" d="M23.8 21.767v-9.323c0-1.031-1.214-1.582-1.99-.903L9.602 22.222a.604.604 0 0 1-1.002-.455V3.4a1.2 1.2 0 0 0-1.2-1.2H2.2A1.2 1.2 0 0 0 1 3.4v32.96c0 .795.644 1.44 1.44 1.44h35.12A1.44 1.44 0 0 0 39 36.36V12.444c0-1.031-1.214-1.582-1.99-.903L24.802 22.222a.604.604 0 0 1-1.002-.455M18.972 33.5h-5.544c-.568 0-1.028-.46-1.028-1.028v-4.543c0-.568.46-1.029 1.028-1.029h5.544c.568 0 1.028.46 1.028 1.028v4.544c0 .568-.46 1.028-1.028 1.028m15.2 0h-5.544c-.568 0-1.028-.46-1.028-1.028v-4.543c0-.568.46-1.029 1.028-1.029h5.544c.568 0 1.028.46 1.028 1.028v4.544c0 .568-.46 1.028-1.028 1.028"/></svg>