<svg xmlns="http://www.w3.org/2000/svg" width="40" height="40" fill="none" viewBox="0 0 40 40"><g clip-path="url(#a)"><mask id="c" width="40" height="40" x="0" y="0" maskUnits="userSpaceOnUse" style="mask-type:luminance"><use href="#b"/></mask><g fill="#2caaab" mask="url(#c)"><path d="M0 12h40a2.95 2.95 0 0 0-1.857-2.743L21.114 2.445a3 3 0 0 0-2.228 0L1.857 9.257A2.95 2.95 0 0 0 0 11.999"/><path fill-rule="evenodd" d="M0 16v2a2 2 0 0 0 2 2v14a2 2 0 0 0 0 4h36a2 2 0 1 0 0-4V20a2 2 0 0 0 2-2v-2zm8 4h4v14H8zm14 0h-4v14h4zm6 0h4v14h-4z" clip-rule="evenodd"/></g></g><defs><clipPath id="a"><use href="#b"/></clipPath><path id="b" fill="#fff" d="M0 0h40v40H0z"/></defs></svg>