<svg xmlns="http://www.w3.org/2000/svg" width="40" height="40" fill="none" viewBox="0 0 40 40"><path fill="#2b4be2" d="M31.533 8.35a2.49 2.49 0 0 0-2.366-1.684H10.833c-1.1 0-2.016.7-2.366 1.683L5 18.333v13.333c0 .917.75 1.667 1.667 1.667h1.666c.917 0 1.667-.75 1.667-1.667v-1.667h20v1.667c0 .917.75 1.667 1.667 1.667h1.666c.917 0 1.667-.75 1.667-1.667V18.333zM10.833 25a2.497 2.497 0 0 1-2.5-2.5c0-1.384 1.117-2.5 2.5-2.5s2.5 1.116 2.5 2.5-1.116 2.5-2.5 2.5m18.334 0a2.497 2.497 0 0 1-2.5-2.5c0-1.384 1.116-2.5 2.5-2.5s2.5 1.116 2.5 2.5-1.117 2.5-2.5 2.5M8.333 16.665l2.5-7.5h18.334l2.5 7.5z"/></svg>