<svg xmlns="http://www.w3.org/2000/svg" width="40" height="40" fill="none" viewBox="0 0 40 40"><path fill="#2b4be2" d="m20.003 21 10 15h-20zm-1.834-4c-1-1-1-2.5-.166-3.5a2.48 2.48 0 0 1 3.666-.167h.167c1 1 .833 2.667-.167 3.5-1 1-2.5 1-3.5.167M8.836 4l2.333 2.333c-4.833 4.834-4.833 12.834 0 17.667l-2.333 2.333C2.669 20.167 2.669 10.167 8.836 4m22.333 0c6.167 6.167 6.167 16.167 0 22.333L28.836 24c4.833-4.833 4.833-12.833 0-17.667zM13.503 8.667 15.836 11c-2.333 2.333-2.333 6 0 8.167l-2.333 2.5a9.36 9.36 0 0 1 0-13m13 0c3.5 3.5 3.5 9.333 0 13l-2.334-2.334c2.334-2.333 2.334-6 0-8.166 0-.167 2.334-2.5 2.334-2.5"/></svg>