<svg xmlns="http://www.w3.org/2000/svg" width="40" height="40" fill="none" viewBox="0 0 40 40"><path fill="#2b4be2" d="M20.004 1.25a18.7 18.7 0 0 0-7.742 1.665.625.625 0 0 0-.3.85l1.117 2.237c.15.3.51.43.816.29a14.9 14.9 0 0 1 6.109-1.29c8.292 0 14.999 6.706 14.999 14.998a14.9 14.9 0 0 1-2.588 8.402l-1.97-1.971a.625.625 0 0 0-1.066.443v6.875a.625.625 0 0 0 .622.627h6.874a.625.625 0 0 0 .443-1.07l-2.215-2.216A18.66 18.66 0 0 0 38.753 20c0-10.348-8.401-18.75-18.75-18.75M3.126 5.624a.625.625 0 0 0-.443 1.066L4.9 8.906A18.66 18.66 0 0 0 1.254 20c0 10.348 8.402 18.75 18.75 18.75 2.758 0 5.381-.599 7.742-1.67a.625.625 0 0 0 .299-.85l-1.12-2.237a.625.625 0 0 0-.813-.29 14.9 14.9 0 0 1-6.108 1.296c-8.292 0-14.999-6.707-14.999-14.999 0-3.118.955-6.004 2.58-8.404l1.978 1.972a.625.625 0 0 0 1.066-.443V6.251a.625.625 0 0 0-.627-.627zm18.096 3.75a.63.63 0 0 0-.5.292L13.228 21.54a.625.625 0 0 0 .524.96h4.952l-.573 7.45c-.046.645.798.927 1.149.384l7.502-11.877a.625.625 0 0 0-.53-.96H21.3l.576-7.45a.625.625 0 0 0-.655-.674"/></svg>