<svg xmlns="http://www.w3.org/2000/svg" width="40" height="40" fill="none" viewBox="0 0 40 40"><path fill="#2caaab" d="m2.156 21.179 6.667 6.666a1.666 1.666 0 1 0 2.356-2.356L5.691 20l5.488-5.488a1.668 1.668 0 0 0-1.172-2.866 1.67 1.67 0 0 0-1.184.51l-6.667 6.666a1.667 1.667 0 0 0 0 2.357m29.022-9.024a1.667 1.667 0 1 0-2.357 2.357L34.31 20l-5.49 5.49a1.668 1.668 0 0 0 .527 2.741 1.665 1.665 0 0 0 1.83-.385l6.667-6.666a1.666 1.666 0 0 0 0-2.357zM21.73 7.877l-6.666 23.334a1.667 1.667 0 1 0 3.203.913l6.667-23.333a1.667 1.667 0 1 0-3.203-.914"/></svg>