<svg width="113" height="38" viewBox="0 0 113 38" fill="none" xmlns="http://www.w3.org/2000/svg">
<g clip-path="url(#clip0_3_641)">
<path fill-rule="evenodd" clip-rule="evenodd" d="M39.057 30.8112C37.4783 31.8892 35.5826 32.3745 33.6929 32.1842C31.8031 31.9941 30.0364 31.1402 28.6938 29.7683L25.202 33.3363C27.3525 35.5338 30.1822 36.9013 33.2089 37.2058C36.2355 37.5105 39.272 36.7333 41.8007 35.0068C42.1469 34.7704 42.4806 34.5183 42.8012 34.2515C43.3661 34.9455 44.0362 35.5534 44.7972 36.0509C46.6674 37.274 48.9148 37.721 51.1298 37.3882L50.4113 32.396C49.2985 32.5632 48.2647 32.3275 47.4591 31.8007C46.8624 31.4106 46.3876 30.8596 46.08 30.191C46.4884 29.4135 46.8232 28.5922 47.077 27.7376C47.9598 24.7637 47.8062 21.5692 46.6424 18.6982C45.4786 15.8271 43.3764 13.4572 40.6942 11.9923C38.012 10.5274 34.9156 10.0581 31.9327 10.6644C28.9499 11.2706 26.2649 12.915 24.3356 15.3172C22.4062 17.7193 21.3516 20.7308 21.3516 23.8383H26.2899C26.2899 21.8982 26.9483 20.0181 28.1529 18.5182C29.3576 17.0185 31.0338 15.9919 32.8961 15.6134C34.7584 15.2349 36.6915 15.5279 38.3662 16.4425C40.0409 17.3571 41.3533 18.8367 42.08 20.6291C42.8065 22.4217 42.9025 24.4161 42.3512 26.2728C41.8 28.1294 40.6358 29.7334 39.057 30.8112Z" fill="#33A951"/>
<path fill-rule="evenodd" clip-rule="evenodd" d="M22.4371 0L17.4988 3.12849V11.1608C16.5145 10.8078 15.4863 10.5735 14.4342 10.4676C11.4075 10.163 8.37111 10.9402 5.84233 12.6667C3.31356 14.3932 1.4489 16.9622 0.566051 19.936C-0.316798 22.9097 -0.163205 26.1042 1.00066 28.9753C2.16452 31.8464 4.26665 34.2162 6.94885 35.6812C9.63107 37.1462 12.7274 37.6153 15.7103 37.0092C18.6932 36.4028 21.378 34.7586 23.3074 32.3564C25.2368 29.9541 26.2913 26.9427 26.2913 23.8351H21.353C21.353 25.7752 20.6946 27.6554 19.4901 29.1552C18.2855 30.6551 16.6092 31.6817 14.7469 32.0601C12.8845 32.4387 10.9514 32.1456 9.27677 31.2311C7.60217 30.3164 6.28974 28.8369 5.5631 27.0443C4.83645 25.2519 4.74055 23.2573 5.29175 21.4006C5.84294 19.5441 7.00712 17.9402 8.58593 16.8622C10.1647 15.7843 12.0605 15.2991 13.9502 15.4893C15.8398 15.6794 17.6065 16.5332 18.9491 17.9052L22.4411 14.3371C22.439 14.3349 22.4367 14.3327 22.4346 14.3305H22.4371V0Z" fill="#0B0E16"/>
<path d="M61.8672 15.474V7.22656H64.0559C64.836 7.22656 65.5005 7.35153 66.0496 7.60146C66.5985 7.85137 67.0391 8.18083 67.3714 8.58978C67.711 8.99875 67.9564 9.45315 68.1081 9.953C68.267 10.4528 68.3466 10.9565 68.3466 11.4639C68.3466 12.0773 68.2418 12.6302 68.0323 13.1225C67.8229 13.6147 67.5375 14.0388 67.1764 14.3948C66.8152 14.7432 66.3998 15.012 65.9303 15.2014C65.4608 15.3831 64.9625 15.474 64.4352 15.474H61.8672ZM63.0266 14.3039H64.2185C64.6445 14.3039 65.0347 14.2395 65.3886 14.1108C65.7498 13.982 66.0605 13.7927 66.3204 13.5428C66.5876 13.2929 66.7935 12.9861 66.938 12.6226C67.0825 12.2591 67.1547 11.8426 67.1547 11.373C67.1547 10.8656 67.0717 10.4263 66.9054 10.0552C66.7465 9.67656 66.5335 9.36605 66.2663 9.1237C65.999 8.87379 65.6992 8.69202 65.3669 8.57843C65.0419 8.45725 64.7095 8.39666 64.3702 8.39666H63.0266V14.3039Z" fill="#33A951"/>
<path d="M71.716 15.5858C71.2897 15.5858 70.9032 15.4949 70.5565 15.3131C70.2098 15.1238 69.9353 14.8436 69.7331 14.4725C69.5309 14.1014 69.4297 13.6432 69.4297 13.0979C69.4297 12.5602 69.5344 12.0982 69.744 11.712C69.9607 11.3257 70.2424 11.0304 70.5891 10.8259C70.943 10.6138 71.3258 10.5078 71.7375 10.5078C72.1709 10.5078 72.525 10.6063 72.7994 10.8032C73.0811 10.9925 73.3015 11.2159 73.4604 11.4734L73.3845 11.6552L73.4928 10.7123H74.5222V15.4722H73.4062V14.2794L73.5254 14.5634C73.4965 14.624 73.4351 14.711 73.3412 14.8246C73.2473 14.9307 73.1208 15.0443 72.9619 15.1654C72.8102 15.2866 72.6296 15.3889 72.4202 15.4722C72.2179 15.5479 71.9831 15.5858 71.716 15.5858ZM72.0192 14.6315C72.2577 14.6315 72.4707 14.5861 72.6585 14.4952C72.8463 14.4043 73.0052 14.2756 73.1352 14.109C73.2654 13.9423 73.3556 13.7454 73.4062 13.5182V12.5299C73.3484 12.3178 73.2508 12.1361 73.1137 11.9846C72.9763 11.8256 72.8102 11.7006 72.6152 11.6097C72.4274 11.5189 72.2179 11.4734 71.9868 11.4734C71.7268 11.4734 71.4884 11.5416 71.2717 11.6779C71.055 11.8066 70.8817 11.9884 70.7515 12.2232C70.6215 12.458 70.5565 12.7306 70.5565 13.0411C70.5565 13.3365 70.6215 13.6053 70.7515 13.8477C70.8889 14.09 71.0695 14.2832 71.2934 14.427C71.5173 14.5634 71.7592 14.6315 72.0192 14.6315Z" fill="#33A951"/>
<path d="M76.669 8.625H77.785V10.7266H78.9984V11.6468H77.785V15.4751H76.669V11.6468H75.8672V10.7266H76.669V8.625Z" fill="#33A951"/>
<path d="M82.0986 15.5858C81.6725 15.5858 81.2861 15.4949 80.9393 15.3131C80.5926 15.1238 80.3181 14.8436 80.1158 14.4725C79.9136 14.1014 79.8125 13.6432 79.8125 13.0979C79.8125 12.5602 79.9173 12.0982 80.1266 11.712C80.3433 11.3257 80.625 11.0304 80.9718 10.8259C81.3256 10.6138 81.7086 10.5078 82.1203 10.5078C82.5538 10.5078 82.9077 10.6063 83.1822 10.8032C83.4639 10.9925 83.6841 11.2159 83.843 11.4734L83.7671 11.6552L83.8756 10.7123H84.9049V15.4722H83.7889V14.2794L83.908 14.5634C83.8791 14.624 83.8178 14.711 83.7239 14.8246C83.63 14.9307 83.5035 15.0443 83.3446 15.1654C83.193 15.2866 83.0124 15.3889 82.8029 15.4722C82.6007 15.5479 82.366 15.5858 82.0986 15.5858ZM82.402 14.6315C82.6403 14.6315 82.8535 14.5861 83.0413 14.4952C83.2291 14.4043 83.388 14.2756 83.518 14.109C83.648 13.9423 83.7382 13.7454 83.7889 13.5182V12.5299C83.7311 12.3178 83.6337 12.1361 83.4963 11.9846C83.3591 11.8256 83.193 11.7006 82.9979 11.6097C82.8101 11.5189 82.6007 11.4734 82.3695 11.4734C82.1095 11.4734 81.871 11.5416 81.6543 11.6779C81.4378 11.8066 81.2643 11.9884 81.1343 12.2232C81.0043 12.458 80.9393 12.7306 80.9393 13.0411C80.9393 13.3365 81.0043 13.6053 81.1343 13.8477C81.2715 14.09 81.4521 14.2832 81.676 14.427C81.8999 14.5634 82.1419 14.6315 82.402 14.6315Z" fill="#33A951"/>
<path d="M87.9367 15.5716C87.6045 15.5716 87.283 15.511 86.9724 15.3898C86.6618 15.2611 86.4053 15.0755 86.2031 14.8332L86.6798 14.1743C86.8748 14.3636 87.07 14.5075 87.265 14.606C87.4671 14.6969 87.6586 14.7423 87.8393 14.7423C87.9836 14.7423 88.1136 14.7272 88.2292 14.6969C88.3449 14.659 88.4388 14.5984 88.5109 14.5151C88.5831 14.4318 88.6194 14.322 88.6194 14.1857C88.6194 14.0266 88.5688 13.9017 88.4677 13.8108C88.3664 13.7199 88.2364 13.6442 88.0775 13.5836C87.9186 13.523 87.7489 13.4662 87.5682 13.4132C87.1854 13.2844 86.8965 13.1027 86.7015 12.8679C86.5066 12.6255 86.409 12.3415 86.409 12.0159C86.409 11.766 86.4668 11.5312 86.5824 11.3115C86.7051 11.0844 86.8894 10.8988 87.135 10.7549C87.3806 10.611 87.6839 10.5391 88.0451 10.5391C88.3773 10.5391 88.6699 10.5807 88.9227 10.664C89.1755 10.7398 89.4102 10.8723 89.6269 11.0616L89.1935 11.766C89.0635 11.6296 88.9083 11.5274 88.7277 11.4592C88.5542 11.3835 88.3953 11.3418 88.251 11.3343C88.121 11.3343 88.0017 11.357 87.8934 11.4024C87.7849 11.4403 87.6984 11.5009 87.6334 11.5842C87.5682 11.6599 87.5358 11.7508 87.5358 11.8568C87.5286 12.0083 87.5756 12.1333 87.6767 12.2317C87.7849 12.3226 87.9223 12.3983 88.0884 12.4589C88.2545 12.5119 88.417 12.5687 88.5759 12.6293C88.7998 12.6975 88.9985 12.7921 89.172 12.9133C89.3452 13.0269 89.4826 13.167 89.5837 13.3336C89.6847 13.5003 89.7354 13.7123 89.7354 13.9698C89.7354 14.25 89.6704 14.5151 89.5402 14.765C89.4102 15.0074 89.2115 15.2043 88.9444 15.3558C88.677 15.4996 88.3412 15.5716 87.9367 15.5716Z" fill="#33A951"/>
<path d="M91.5439 8.625H92.6599V10.7266H93.8734V11.6468H92.6599V15.4751H91.5439V11.6468H90.7422V10.7266H91.5439V8.625Z" fill="#33A951"/>
<path d="M96.075 10.7088L96.1832 12.072L96.1291 11.8902C96.2519 11.6024 96.4252 11.3563 96.6491 11.1518C96.8732 10.9473 97.1042 10.7921 97.3427 10.686C97.5881 10.5724 97.794 10.5156 97.9602 10.5156L97.9061 11.6744C97.5592 11.6516 97.256 11.7198 96.9958 11.8788C96.743 12.0379 96.5445 12.2499 96.4 12.515C96.2554 12.7801 96.1832 13.0641 96.1832 13.367V15.4686H95.0781V10.7088H96.075Z" fill="#33A951"/>
<path d="M99.2212 10.7152H100.337V15.4751H99.2212V10.7152ZM99.1562 9.01116C99.1562 8.8294 99.2249 8.67793 99.3621 8.55676C99.4993 8.43558 99.6475 8.375 99.8064 8.375C99.9725 8.375 100.121 8.43558 100.251 8.55676C100.381 8.67793 100.446 8.8294 100.446 9.01116C100.446 9.19293 100.381 9.3444 100.251 9.46556C100.121 9.57918 99.9725 9.63598 99.8064 9.63598C99.6475 9.63598 99.4993 9.57918 99.3621 9.46556C99.2249 9.3444 99.1562 9.19293 99.1562 9.01116Z" fill="#33A951"/>
<path d="M103.891 15.5888C103.465 15.5888 103.082 15.4866 102.743 15.2821C102.403 15.0701 102.136 14.7709 101.941 14.3847C101.746 13.9984 101.648 13.5478 101.648 13.0328C101.648 12.5027 101.753 12.0521 101.963 11.681C102.172 11.3023 102.454 11.0145 102.808 10.8176C103.169 10.6131 103.573 10.5109 104.021 10.5109C104.368 10.5109 104.697 10.5866 105.007 10.7381C105.325 10.882 105.571 11.0865 105.744 11.3515L105.712 11.7491V6.64844H106.817V15.4752H105.701V14.3506L105.82 14.6573C105.596 14.9224 105.322 15.1458 104.996 15.3276C104.671 15.5018 104.303 15.5888 103.891 15.5888ZM104.238 14.6005C104.491 14.6005 104.715 14.5551 104.91 14.4642C105.105 14.3733 105.271 14.2446 105.408 14.078C105.545 13.9038 105.643 13.7031 105.701 13.4759V12.5216C105.65 12.3096 105.553 12.124 105.408 11.965C105.271 11.7984 105.101 11.6696 104.899 11.5787C104.697 11.4879 104.476 11.4424 104.238 11.4424C103.971 11.4424 103.725 11.5106 103.501 11.6469C103.285 11.7756 103.107 11.9574 102.97 12.1922C102.84 12.4269 102.775 12.6996 102.775 13.0101C102.775 13.3055 102.84 13.5743 102.97 13.8167C103.107 14.059 103.288 14.2521 103.512 14.396C103.736 14.5324 103.978 14.6005 104.238 14.6005Z" fill="#33A951"/>
<path d="M110.657 15.5822C110.13 15.5822 109.679 15.4762 109.303 15.2641C108.927 15.0445 108.638 14.7454 108.436 14.3667C108.234 13.9805 108.133 13.5412 108.133 13.0489C108.133 12.5794 108.245 12.1553 108.469 11.7766C108.7 11.3904 109.007 11.0836 109.39 10.8564C109.78 10.6292 110.209 10.5156 110.679 10.5156C111.286 10.5156 111.788 10.7012 112.185 11.0723C112.59 11.4434 112.86 11.9621 112.998 12.6286L109.303 13.9691L109.043 13.2875L112.001 12.1742L111.773 12.3219C111.687 12.0871 111.549 11.8826 111.362 11.7084C111.174 11.5267 110.917 11.4358 110.592 11.4358C110.332 11.4358 110.097 11.504 109.888 11.6403C109.686 11.769 109.523 11.9508 109.401 12.1856C109.285 12.4128 109.227 12.6816 109.227 12.9921C109.227 13.3102 109.288 13.5904 109.411 13.8328C109.541 14.0676 109.715 14.2531 109.931 14.3894C110.155 14.5257 110.405 14.5939 110.679 14.5939C110.874 14.5939 111.058 14.556 111.231 14.4803C111.412 14.4046 111.582 14.3099 111.741 14.1963L112.25 15.0597C112.012 15.2187 111.752 15.3475 111.47 15.4459C111.195 15.5368 110.925 15.5822 110.657 15.5822Z" fill="#33A951"/>
<path d="M61.8672 27.5613L65.3236 18.9844H65.3886L68.845 27.5613H67.523L65.0093 20.8815L65.8436 20.3022L63.0049 27.5613H61.8672ZM63.9692 24.4713H66.7646L67.1654 25.5165H63.6225L63.9692 24.4713Z" fill="#33A951"/>
<path d="M71.0047 22.8024L71.1021 23.893L71.0588 23.7453C71.2105 23.4046 71.4453 23.132 71.7631 22.9275C72.0809 22.7154 72.4565 22.6094 72.8899 22.6094C73.3162 22.6094 73.6664 22.742 73.9409 23.0071C74.2226 23.2721 74.3672 23.6166 74.3743 24.0407V27.5625H73.2584V24.4498C73.251 24.2073 73.1825 24.0104 73.0525 23.859C72.9223 23.7 72.7202 23.6166 72.4456 23.609C72.2 23.609 71.9761 23.6886 71.7739 23.8476C71.5716 23.999 71.4127 24.2073 71.2972 24.4724C71.1816 24.7375 71.1238 25.0442 71.1238 25.3927V27.5625H70.0078V22.8024H71.0047Z" fill="#33A951"/>
<path d="M77.9736 27.6796C77.5475 27.6796 77.1611 27.5886 76.8143 27.407C76.4676 27.2176 76.1931 26.9374 75.9909 26.5662C75.7886 26.1951 75.6875 25.737 75.6875 25.1916C75.6875 24.654 75.7923 24.192 76.0016 23.8058C76.2183 23.4195 76.5 23.1242 76.8468 22.9197C77.2008 22.7076 77.5836 22.6016 77.9953 22.6016C78.4288 22.6016 78.7827 22.7 79.0572 22.8969C79.3389 23.0863 79.5591 23.3097 79.718 23.5672L79.6421 23.7489L79.7506 22.806H80.7799V27.566H79.6639V26.3731L79.783 26.6571C79.7543 26.7177 79.6928 26.8048 79.5989 26.9185C79.505 27.0245 79.3787 27.138 79.2196 27.2593C79.068 27.3803 78.8874 27.4826 78.6779 27.566C78.4757 27.6417 78.2409 27.6796 77.9736 27.6796ZM78.277 26.7253C78.5155 26.7253 78.7285 26.6799 78.9163 26.589C79.1041 26.498 79.263 26.3693 79.393 26.2027C79.523 26.0361 79.6134 25.8391 79.6639 25.6121V24.6236C79.6061 24.4117 79.5087 24.2298 79.3713 24.0784C79.2341 23.9194 79.068 23.7945 78.8729 23.7035C78.6851 23.6126 78.4757 23.5672 78.2445 23.5672C77.9845 23.5672 77.746 23.6354 77.5295 23.7717C77.3128 23.9004 77.1393 24.0821 77.0093 24.3169C76.8793 24.5518 76.8143 24.8244 76.8143 25.1349C76.8143 25.4302 76.8793 25.6992 77.0093 25.9415C77.1465 26.1837 77.3271 26.377 77.551 26.5208C77.7749 26.6571 78.0171 26.7253 78.277 26.7253Z" fill="#33A951"/>
<path d="M82.4922 18.7344H83.6082V27.5612H82.4922V18.7344Z" fill="#33A951"/>
<path d="M85.6838 29.848L88.685 22.8047H89.7036L86.7782 29.848H85.6838ZM86.8324 27.5987L84.6328 22.8047H85.8896L87.6884 27.0079L86.8324 27.5987Z" fill="#33A951"/>
<path d="M91.1769 20.7109H92.2929V22.8126H93.5064V23.7327H92.2929V27.5612H91.1769V23.7327H90.375V22.8126H91.1769V20.7109Z" fill="#33A951"/>
<path d="M94.7136 22.801H95.8296V27.561H94.7136V22.801ZM94.6484 21.0971C94.6484 20.9152 94.7171 20.7638 94.8545 20.6426C94.9916 20.5214 95.1397 20.4609 95.2986 20.4609C95.4647 20.4609 95.6129 20.5214 95.7429 20.6426C95.8729 20.7638 95.9379 20.9152 95.9379 21.0971C95.9379 21.2787 95.8729 21.4303 95.7429 21.5515C95.6129 21.665 95.4647 21.7218 95.2986 21.7218C95.1397 21.7218 94.9916 21.665 94.8545 21.5515C94.7171 21.4303 94.6484 21.2787 94.6484 21.0971Z" fill="#33A951"/>
<path d="M101.247 27.118C101.045 27.2921 100.799 27.4284 100.51 27.5269C100.229 27.6253 99.9434 27.6746 99.6545 27.6746C99.1561 27.6746 98.7154 27.5723 98.3325 27.3678C97.9568 27.1634 97.6645 26.8755 97.4549 26.5044C97.2454 26.1334 97.1406 25.6903 97.1406 25.1754C97.1406 24.6679 97.2526 24.2287 97.4766 23.8576C97.7005 23.4789 97.9966 23.1912 98.3651 22.9943C98.7335 22.7896 99.1235 22.6875 99.5352 22.6875C99.9108 22.6875 100.243 22.7406 100.532 22.8466C100.821 22.9526 101.07 23.1003 101.28 23.2896L100.727 24.0507C100.604 23.9447 100.449 23.8501 100.261 23.7667C100.081 23.6833 99.871 23.6418 99.6328 23.6418C99.3799 23.6418 99.1487 23.7099 98.9393 23.8462C98.7298 23.975 98.5637 24.1567 98.4409 24.3914C98.3181 24.6187 98.2566 24.88 98.2566 25.1754C98.2566 25.4556 98.3181 25.7168 98.4409 25.9592C98.5709 26.194 98.7479 26.3795 98.9718 26.5158C99.1957 26.6521 99.4521 26.7203 99.741 26.7203C99.9288 26.7203 100.102 26.6938 100.261 26.6407C100.42 26.5801 100.561 26.4969 100.684 26.3909L101.247 27.118Z" fill="#33A951"/>
<path d="M103.843 27.6653C103.511 27.6653 103.189 27.6046 102.879 27.4836C102.568 27.3548 102.312 27.1693 102.109 26.9268L102.586 26.2679C102.781 26.4573 102.976 26.6013 103.171 26.6996C103.373 26.7905 103.565 26.8361 103.745 26.8361C103.89 26.8361 104.02 26.8208 104.135 26.7905C104.251 26.7527 104.345 26.6921 104.417 26.6088C104.489 26.5254 104.525 26.4156 104.525 26.2793C104.525 26.1204 104.475 25.9953 104.374 25.9044C104.273 25.8136 104.143 25.7378 103.984 25.6773C103.825 25.6167 103.655 25.56 103.474 25.5069C103.092 25.3781 102.803 25.1964 102.608 24.9617C102.413 24.7192 102.315 24.4352 102.315 24.1095C102.315 23.8597 102.373 23.6249 102.488 23.4052C102.611 23.178 102.795 22.9925 103.041 22.8487C103.287 22.7046 103.59 22.6328 103.951 22.6328C104.284 22.6328 104.576 22.6743 104.829 22.7577C105.082 22.8334 105.316 22.966 105.533 23.1552L105.1 23.8597C104.97 23.7234 104.814 23.6211 104.634 23.5529C104.46 23.4772 104.302 23.4356 104.157 23.428C104.027 23.428 103.908 23.4506 103.8 23.4962C103.691 23.534 103.604 23.5946 103.539 23.6778C103.474 23.7537 103.442 23.8445 103.442 23.9504C103.435 24.102 103.482 24.2269 103.583 24.3254C103.691 24.4163 103.828 24.492 103.995 24.5526C104.161 24.6057 104.323 24.6624 104.482 24.723C104.706 24.7912 104.905 24.8858 105.078 25.007C105.251 25.1206 105.389 25.2607 105.49 25.4273C105.591 25.5939 105.641 25.8061 105.641 26.0635C105.641 26.3438 105.576 26.6088 105.446 26.8587C105.316 27.1011 105.118 27.298 104.851 27.4494C104.583 27.5932 104.247 27.6653 103.843 27.6653Z" fill="#33A951"/>
</g>
<defs>
<clipPath id="clip0_3_641">
<rect width="113" height="37.4915" fill="white"/>
</clipPath>
</defs>
</svg>
