<svg xmlns="http://www.w3.org/2000/svg" width="48" height="48" fill="none" viewBox="0 0 48 48"><path fill="#33a952" d="M31.5 1.5h-18A7.5 7.5 0 0 0 6 9v25.5a7.5 7.5 0 0 0 7.5 7.5H30v-4.666A10.46 10.46 0 0 1 27 30c0-5.79 4.712-10.5 10.5-10.5.51 0 1.008.05 1.5.12V9a7.5 7.5 0 0 0-7.5-7.5m-10.23 33H13.5a1.5 1.5 0 1 1 0-3h7.77a1.5 1.5 0 1 1 0 3m.36-7.5H13.5a1.5 1.5 0 1 1 0-3h8.13a1.5 1.5 0 1 1 0 3m4.545-7.5H13.5a1.5 1.5 0 1 1 0-3h12.675a1.5 1.5 0 1 1 0 3M31.5 12h-18a1.5 1.5 0 1 1 0-3h18a1.5 1.5 0 1 1 0 3m6 28.501c-1.612 0-3.135-.375-4.5-1.024v5.521c0 1.199 1.335 1.913 2.333 1.248L37.5 44.8l2.167 1.446c.998.665 2.333-.05 2.333-1.248v-5.521a10.44 10.44 0 0 1-4.5 1.024"/><path fill="#33a952" d="M37.5 37.5a7.5 7.5 0 1 0 0-15 7.5 7.5 0 0 0 0 15"/></svg>