<svg xmlns="http://www.w3.org/2000/svg" width="48" height="48" fill="none" viewBox="0 0 48 48"><path fill="#0c8ce9" d="M36.358 18.048V13.58c0-6.81-5.563-12.38-12.38-12.38s-12.39 5.57-12.39 12.38v4.468c-3.359.29-5.95 3.07-5.95 6.529v15.648a6.55 6.55 0 0 0 6.574 6.574h23.575a6.55 6.55 0 0 0 6.574-6.574V24.577c0-3.458-2.645-6.24-6.004-6.529M26.334 34.616v2.1a1.13 1.13 0 0 1-1.131 1.13h-2.406a1.13 1.13 0 0 1-1.13-1.13v-2.1a4.23 4.23 0 0 1-1.93-3.564A4.267 4.267 0 0 1 24 26.788a4.267 4.267 0 0 1 4.264 4.264 4.23 4.23 0 0 1-1.93 3.564m3.739-16.666h-12.19v-4.37a6.104 6.104 0 0 1 6.094-6.096 6.104 6.104 0 0 1 6.096 6.096z"/></svg>