<svg xmlns="http://www.w3.org/2000/svg" width="48" height="48" fill="none" viewBox="0 0 48 48"><path fill="#0c8ce9" d="M23 24.488c6.075 0 11-4.925 11-11s-4.925-11-11-11-11 4.925-11 11 4.925 11 11 11"/><path fill="#0c8ce9" fill-rule="evenodd" d="M35.001 27.875a7.127 7.127 0 0 0-7.124 7.124 7.13 7.13 0 0 0 7.124 7.126 7.13 7.13 0 0 0 7.126-7.126 7.13 7.13 0 0 0-7.126-7.124m0 3a4.13 4.13 0 0 1 4.126 4.124 4.13 4.13 0 0 1-4.126 4.126 4.13 4.13 0 0 1-4.126-4.126 4.13 4.13 0 0 1 4.126-4.124" clip-rule="evenodd"/><path fill="#0c8ce9" fill-rule="evenodd" d="M36.5 29.374V26a1.5 1.5 0 0 0-3 0v3.376c0 .826.672 1.5 1.5 1.5a1.504 1.504 0 0 0 1.5-1.502m3.539 2.71 2.386-2.388a1.498 1.498 0 1 0-2.12-2.12l-2.389 2.386a1.504 1.504 0 0 0 0 2.122 1.504 1.504 0 0 0 2.123 0m.586 4.416h3.376a1.5 1.5 0 0 0 0-3h-3.376a1.5 1.5 0 0 0 0 3m-2.708 3.537 2.387 2.386a1.498 1.498 0 1 0 2.12-2.12l-2.386-2.388a1.504 1.504 0 0 0-2.121 0 1.504 1.504 0 0 0 0 2.122m-4.417.588v3.376a1.5 1.5 0 0 0 3 0v-3.376c0-.826-.672-1.498-1.5-1.5-.828 0-1.5.674-1.5 1.5m-3.538-2.71-2.386 2.388a1.498 1.498 0 1 0 2.12 2.12l2.388-2.386a1.504 1.504 0 0 0 0-2.122 1.504 1.504 0 0 0-2.122 0m-.588-4.415H26a1.5 1.5 0 0 0 0 3h3.374a1.5 1.5 0 1 0 0-3m2.71-3.538-2.388-2.386a1.498 1.498 0 1 0-2.12 2.12l2.386 2.388a1.504 1.504 0 0 0 2.122 0 1.504 1.504 0 0 0 0-2.122" clip-rule="evenodd"/><path fill="#0c8ce9" fill-rule="evenodd" d="M25.872 43.51a3.5 3.5 0 0 1 .29-4.621l.388-.39H26a3.5 3.5 0 0 1-3.5-3.5c0-1.932 1.568-3.5 3.5-3.5h.55l-.388-.39a3.5 3.5 0 0 1-.156-4.782A39 39 0 0 0 23 26.21c-6.644 0-12.526 1.662-16.178 4.152-2.786 1.9-4.322 4.314-4.322 6.848v2.9a3.4 3.4 0 0 0 3.4 3.4z" clip-rule="evenodd"/></svg>