<svg xmlns="http://www.w3.org/2000/svg" width="48" height="48" fill="none" viewBox="0 0 48 48"><path fill="#33a952" d="M24 10.754c-12.48 0-22.272 11.52-22.656 12.096-.576.768-.576 1.728 0 2.496.384.576 10.176 12.096 22.656 12.096s22.08-11.52 22.656-12.096c.576-.768.576-1.728 0-2.496C46.08 22.274 36.48 10.754 24 10.754m0 22.464c-4.992 0-9.216-4.224-9.216-9.216 0-5.184 4.224-9.216 9.216-9.216 5.184 0 9.216 4.032 9.216 9.216 0 4.992-4.032 9.216-9.216 9.216"/><path fill="#33a952" d="M24.001 19.586h-.192c.192.384.192.96.192 1.344 0 2.304-1.92 4.224-4.224 4.416.576 1.92 2.496 3.072 4.224 3.072 2.496 0 4.416-1.92 4.416-4.416s-1.92-4.416-4.416-4.416M2.879 34.754c-1.152 0-1.92.768-1.92 1.92v8.448c0 1.152.768 1.92 1.92 1.92h8.448c1.152 0 1.92-.768 1.92-1.92s-.768-1.92-1.92-1.92H4.799v-6.528c0-1.152-.768-1.92-1.92-1.92m0-21.505c1.152 0 1.92-.768 1.92-1.92V4.8h6.528c1.152 0 1.92-.768 1.92-1.92S12.479.96 11.327.96H2.879c-1.152 0-1.92.768-1.92 1.92v8.448c0 1.152.768 1.92 1.92 1.92m42.241.001c1.152 0 1.92-.768 1.92-1.92V2.88c0-1.152-.768-1.92-1.92-1.92h-8.448c-1.152 0-1.92.768-1.92 1.92s.768 1.92 1.92 1.92H43.2v6.528c0 1.152.768 1.92 1.92 1.92m0 33.794c1.152 0 1.92-.768 1.92-1.92v-8.448c0-1.152-.768-1.92-1.92-1.92s-1.92.768-1.92 1.92v6.528h-6.528c-1.152 0-1.92.768-1.92 1.92s.768 1.92 1.92 1.92z"/></svg>