<svg xmlns="http://www.w3.org/2000/svg" width="48" height="48" fill="none" viewBox="0 0 48 48"><g fill="#0c8ce9" clip-path="url(#a)"><path d="M48 11.361v18.156a1.41 1.41 0 0 1-1.411 1.411h-2.184V16.61a3.064 3.064 0 0 0-3.065-3.065H22.77a.24.24 0 0 1-.217-.135l-1.916-3.886a3.05 3.05 0 0 0-2.75-1.71h-5.05V5.63c0-.78.633-1.411 1.413-1.411h10.056c.093 0 .176.051.217.135l1.916 3.886a3.05 3.05 0 0 0 2.75 1.71h17.4c.78 0 1.411.632 1.411 1.411"/><path d="M41.58 16.608v19.326c0 .78-.632 1.412-1.412 1.412h-2.183v-14.32a3.065 3.065 0 0 0-3.065-3.064H16.35a.24.24 0 0 1-.217-.134l-1.917-3.887a3.05 3.05 0 0 0-2.749-1.709H6.418V12.05c0-.78.632-1.412 1.412-1.412h10.056c.093 0 .176.05.217.133l1.916 3.887a3.05 3.05 0 0 0 2.749 1.71h18.571a.24.24 0 0 1 .241.24"/><path d="M34.922 22.788H16.35a3.05 3.05 0 0 1-2.749-1.709l-1.916-3.886a.24.24 0 0 0-.217-.134H1.412A1.41 1.41 0 0 0 0 18.47v23.886c0 .78.632 1.412 1.412 1.412H33.75c.78 0 1.412-.632 1.412-1.412V23.03a.24.24 0 0 0-.241-.24m-8.287 16.404c0 .783-.638 1.412-1.412 1.412a1.414 1.414 0 0 1-1.411-1.412v-.918a1.413 1.413 0 0 1 2.823 0zm4.63 0a1.413 1.413 0 0 1-2.824 0v-.918a1.413 1.413 0 0 1 2.823 0z"/></g><defs><clipPath id="a"><path fill="#fff" d="M0 0h48v48H0z"/></clipPath></defs></svg>