<svg xmlns="http://www.w3.org/2000/svg" width="48" height="48" fill="none" viewBox="0 0 48 48"><path fill="#0c8ce9" fill-rule="evenodd" d="M26.843 2.73 29.7 4.87a4.55 4.55 0 0 0 2.579.938l3.564.199c2.135.118 3.868 1.573 4.356 3.654l.814 3.476a4.55 4.55 0 0 0 1.373 2.377l2.603 2.444c1.558 1.463 1.951 3.691.987 5.599l-1.61 3.186a4.55 4.55 0 0 0-.477 2.703l.424 3.545c.253 2.123-.878 4.082-2.843 4.924l-3.282 1.405a4.55 4.55 0 0 0-2.102 1.765l-1.955 2.987a4.686 4.686 0 0 1-5.342 1.945l-3.418-1.033a4.55 4.55 0 0 0-2.744 0l-3.418 1.033c-2.046.618-4.172-.156-5.342-1.945l-1.954-2.987A4.55 4.55 0 0 0 9.81 39.32l-3.282-1.405a4.686 4.686 0 0 1-2.843-4.924l.424-3.545a4.55 4.55 0 0 0-.477-2.703l-1.61-3.186a4.686 4.686 0 0 1 .987-5.6l2.603-2.443a4.55 4.55 0 0 0 1.373-2.377L7.8 9.661c.487-2.081 2.22-3.536 4.355-3.654l3.565-.199a4.55 4.55 0 0 0 2.58-.939l2.857-2.139a4.686 4.686 0 0 1 5.686 0m-4.666 22.493-3.102-3.102a2.06 2.06 0 0 0-2.912 2.912l4.562 4.562a2.06 2.06 0 0 0 2.912 0c2.75-2.75 5.468-5.53 8.205-8.293a2.056 2.056 0 0 0-2.916-2.896zM24 8.666a15.3 15.3 0 0 0-10.842 4.49 15.3 15.3 0 0 0-4.49 10.842c0 4.234 1.716 8.067 4.49 10.842A15.3 15.3 0 0 0 24 39.33c4.234 0 8.067-1.715 10.842-4.49a15.3 15.3 0 0 0 4.49-10.842c0-4.233-1.716-8.067-4.49-10.841A15.3 15.3 0 0 0 24 8.666m9.78 5.551A13.8 13.8 0 0 0 24 10.166a13.8 13.8 0 0 0-9.781 4.051 13.8 13.8 0 0 0-4.052 9.781 13.8 13.8 0 0 0 4.052 9.781 13.8 13.8 0 0 0 9.78 4.052 13.8 13.8 0 0 0 9.782-4.052A13.8 13.8 0 0 0 37.832 24c0-3.82-1.548-7.279-4.051-9.782" clip-rule="evenodd"/></svg>