<svg xmlns="http://www.w3.org/2000/svg" width="48" height="48" fill="none" viewBox="0 0 48 48"><g fill="#33a952" clip-path="url(#a)"><path d="M30 26a2 2 0 0 0-2 2v8c0 1.102-.896 2-2 2h-6V8a4.03 4.03 0 0 0-2.724-3.802L16.684 4H26c1.104 0 2 .898 2 2v6a2 2 0 1 0 4 0V6c0-3.308-2.692-6-6-6H4.5c-.076 0-.14.034-.214.044C4.19.036 4.098 0 4 0 1.794 0 0 1.794 0 4v36a4.03 4.03 0 0 0 2.724 3.8l12.036 4.012c.408.126.814.186 1.24.186 2.206 0 4-1.794 4-4v-2h6c3.308 0 6-2.691 6-6v-8a2 2 0 0 0-2-2"/><path d="m47.414 18.586-8-8A2 2 0 0 0 36 12.002v6h-8a2 2 0 0 0 0 4h8v6a2 2 0 0 0 3.414 1.414l8-8a2 2 0 0 0 0-2.829"/></g><defs><clipPath id="a"><path fill="#fff" d="M0 0h48v48H0z"/></clipPath></defs></svg>