<svg xmlns="http://www.w3.org/2000/svg" width="72" height="72" fill="none" viewBox="0 0 72 72"><path fill="url(#a)" d="m36 4.355-27 9.82V36c0 24.662 26.2 31.37 26.464 31.436l.536.13.536-.13C36.8 67.37 63 60.662 63 36V14.175zM58.5 36c0 19.527-18.92 25.89-22.491 26.917C32.566 61.896 13.5 55.36 13.5 36V17.325L36 9.145l22.5 8.18z"/><path fill="url(#b)" d="m24.09 34.41-3.18 3.18L31.5 48.183 51.09 28.59l-3.18-3.182L31.5 41.82z"/><defs><linearGradient id="a" x1="6.188" x2="45" y1="19.125" y2="51.75" gradientUnits="userSpaceOnUse"><stop stop-color="#baffba"/><stop offset="1" stop-color="#aef8ff"/></linearGradient><linearGradient id="b" x1="6.188" x2="45" y1="19.125" y2="51.75" gradientUnits="userSpaceOnUse"><stop stop-color="#baffba"/><stop offset="1" stop-color="#aef8ff"/></linearGradient></defs></svg>