<svg xmlns="http://www.w3.org/2000/svg" width="48" height="48" fill="none" viewBox="0 0 48 48"><g fill="#33a952" clip-path="url(#a)"><path d="m33.06 14.21-3.626 1.472a10 10 0 0 0-.948-.547l-.539-3.877h-7.894l-.539 3.877a10 10 0 0 0-.948.547L14.94 14.21l-3.947 6.837 3.09 2.406q-.03.546 0 1.093l-3.09 2.406 3.947 6.837 3.627-1.473q.459.3.948.548l.539 3.877h7.894l.539-3.877q.489-.247.948-.547l3.627 1.472 3.947-6.837-3.09-2.406q.03-.547 0-1.093l3.09-2.406zM24 28.247A4.25 4.25 0 0 1 19.753 24c.233-5.635 8.261-5.633 8.494 0A4.25 4.25 0 0 1 24 28.247"/><path d="M45.427 23.998c.15-9.923-7.374-19.135-17.1-20.99l-.57 2.774c20.374 4.708 19.374 33.227-1.115 36.622l.636-1.038-2.415-1.478-2.586 4.223L25.345 48l2.223-1.755-.788-.998c10.378-1.157 18.852-10.763 18.647-21.249M9.649 35.824C.383 24.74 7.238 7.49 21.363 5.592l-.637 1.043 2.417 1.475 2.58-4.227L22.651 0l-2.22 1.757.786.994C10.841 3.911 2.37 13.515 2.574 24c-.15 9.923 7.374 19.135 17.1 20.99l.57-2.774a18.65 18.65 0 0 1-10.595-6.391"/></g><defs><clipPath id="a"><path fill="#fff" d="M0 0h48v48H0z"/></clipPath></defs></svg>