<svg xmlns="http://www.w3.org/2000/svg" width="48" height="48" fill="none" viewBox="0 0 48 48"><g fill="#33a952" clip-path="url(#a)"><path d="M44.505 8.447 23.997 0 3.502 8.447c-.56 25.635 12.376 35.768 17.977 38.945 1.508.856 3.406.809 4.847-.145 12.795-8.465 18.433-23.925 18.179-38.8M34.143 31.67a3.75 3.75 0 0 1-3.75 3.743H16.94a3.75 3.75 0 0 1-3.75-3.743V21.1c0-1.452.833-2.712 2.046-3.333v-2.444c0-4.543 3.782-8.239 8.431-8.239 4.65 0 8.432 3.696 8.432 8.239v2.444a3.75 3.75 0 0 1 2.045 3.333z"/><path d="M30.394 20.438H16.939a.66.66 0 0 0-.662.66v10.57c0 .365.297.661.662.661h13.455a.66.66 0 0 0 .662-.66V21.098a.66.66 0 0 0-.662-.66m-5.404 6.209v3.29h-2.647v-3.29a2.2 2.2 0 0 1-.882-1.759c0-1.216.987-2.202 2.206-2.202s2.205.986 2.205 2.202c0 .72-.347 1.357-.882 1.759m4.021-9.293V15.32c0-2.843-2.397-5.156-5.343-5.156s-5.344 2.313-5.344 5.156v2.034z"/></g><defs><clipPath id="a"><path fill="#fff" d="M0 0h48v48H0z"/></clipPath></defs></svg>